<svg width="24" height="24" viewBox="0 0 24 24" fill="none" xmlns="http://www.w3.org/2000/svg">
<path fill-rule="evenodd" clip-rule="evenodd" d="M8 1.25C8.41421 1.25 8.75 1.58579 8.75 2V5C8.75 5.41421 8.41421 5.75 8 5.75C7.58579 5.75 7.25 5.41421 7.25 5V2C7.25 1.58579 7.58579 1.25 8 1.25Z" fill="#232323"/>
<path fill-rule="evenodd" clip-rule="evenodd" d="M16 1.25C16.4142 1.25 16.75 1.58579 16.75 2V5C16.75 5.41421 16.4142 5.75 16 5.75C15.5858 5.75 15.25 5.41421 15.25 5V2C15.25 1.58579 15.5858 1.25 16 1.25Z" fill="#232323"/>
<path fill-rule="evenodd" clip-rule="evenodd" d="M2.75 9.09C2.75 8.67578 3.08579 8.34 3.5 8.34H20.5C20.9142 8.34 21.25 8.67578 21.25 9.09C21.25 9.50421 20.9142 9.84 20.5 9.84H3.5C3.08579 9.84 2.75 9.50421 2.75 9.09Z" fill="#232323"/>
<path fill-rule="evenodd" clip-rule="evenodd" d="M4.7371 5.38534C4.09637 6.07535 3.75 7.11497 3.75 8.5V17C3.75 18.385 4.09637 19.4246 4.7371 20.1147C5.36848 20.7946 6.39295 21.25 8 21.25H16C17.607 21.25 18.6315 20.7946 19.2629 20.1147C19.9036 19.4246 20.25 18.385 20.25 17V8.5C20.25 7.11497 19.9036 6.07535 19.2629 5.38534C18.6315 4.70538 17.607 4.25 16 4.25H8C6.39295 4.25 5.36848 4.70538 4.7371 5.38534ZM3.6379 4.36466C4.63152 3.29462 6.10705 2.75 8 2.75H16C17.893 2.75 19.3685 3.29462 20.3621 4.36466C21.3464 5.42465 21.75 6.88503 21.75 8.5V17C21.75 18.615 21.3464 20.0754 20.3621 21.1353C19.3685 22.2054 17.893 22.75 16 22.75H8C6.10705 22.75 4.63152 22.2054 3.6379 21.1353C2.65363 20.0754 2.25 18.615 2.25 17V8.5C2.25 6.88503 2.65363 5.42465 3.6379 4.36466Z" fill="#232323"/>
</svg>